<svg width="24" height="25" viewBox="0 0 24 25" fill="none" xmlns="http://www.w3.org/2000/svg">
<path d="M2.04956 13.8264C1.11735 12.2549 0.790878 10.3972 1.13146 8.60203C1.47204 6.80687 2.45624 5.19778 3.89924 4.07692C5.34225 2.95606 7.1448 2.40053 8.96842 2.51465C10.792 2.62877 12.5113 3.40468 13.8033 4.69669C15.0953 5.9887 15.8712 7.70793 15.9853 9.53155C16.0995 11.3552 15.544 13.1577 14.4231 14.6007C13.3022 16.0437 11.6932 17.0279 9.898 17.3685C8.10285 17.7091 6.2451 17.3827 4.6736 16.4505L4.67362 16.4504L2.08218 17.1908C1.97497 17.2214 1.86151 17.2228 1.75357 17.1949C1.64563 17.1669 1.54713 17.1106 1.46828 17.0317C1.38944 16.9529 1.33311 16.8544 1.30514 16.7464C1.27717 16.6385 1.27857 16.525 1.30921 16.4178L2.04962 13.8264L2.04956 13.8264Z" stroke="currentColor" stroke-width="2" stroke-linecap="round" stroke-linejoin="round"/>
<path d="M8 17.4851C8.37939 18.5326 8.99291 19.4851 9.79638 20.2742C10.5998 21.0633 11.5733 21.6693 12.6465 22.0485C13.7198 22.4278 14.8661 22.5708 16.0031 22.4673C17.14 22.3639 18.2392 22.0165 19.2214 21.4501L19.2214 21.4501L21.8869 22.1907C21.9972 22.2214 22.1139 22.2228 22.2249 22.1948C22.3359 22.1668 22.4373 22.1105 22.5184 22.0316C22.5995 21.9527 22.6574 21.8542 22.6862 21.7462C22.7149 21.6382 22.7135 21.5247 22.682 21.4175L21.9204 18.8252L21.9205 18.8253C22.5971 17.7154 22.9683 16.4547 22.9981 15.1648C23.0278 13.8749 22.7153 12.5992 22.0906 11.461C21.4658 10.3227 20.55 9.36024 19.4314 8.66644C18.3128 7.97263 17.0293 7.5709 15.7045 7.5" stroke="currentColor" stroke-width="2" stroke-linecap="round" stroke-linejoin="round"/>
</svg>
