<svg width="18" height="22" viewBox="0 0 18 22" fill="none" xmlns="http://www.w3.org/2000/svg">
<path d="M17.25 13.25C17.25 15.438 16.3808 17.5365 14.8336 19.0836C13.2865 20.6308 11.188 21.5 9 21.5C6.81196 21.5 4.71354 20.6308 3.16637 19.0836C1.61919 17.5365 0.75 15.438 0.75 13.25C0.75 11.0734 1.47029 8.83973 2.89082 6.61088C2.94678 6.52308 3.0204 6.4479 3.107 6.39011C3.1936 6.33233 3.29129 6.29321 3.39384 6.27524C3.49638 6.25728 3.60155 6.26086 3.70264 6.28577C3.80373 6.31067 3.89852 6.35635 3.98099 6.4199L6.39555 8.28016L9.04514 0.99366C9.08555 0.88254 9.15166 0.782549 9.23808 0.701848C9.32449 0.621146 9.42877 0.562021 9.54239 0.529296C9.65601 0.496571 9.77576 0.491175 9.89186 0.513547C10.008 0.53592 10.1171 0.585427 10.2105 0.658028C10.4979 0.881509 17.25 6.21409 17.25 13.25Z" fill="#ED2E7E"/>
</svg>
