<svg width="16" height="16" viewBox="0 0 16 16" fill="none" xmlns="http://www.w3.org/2000/svg">
<path d="M7.30784 2.32463C7.56448 1.70986 8.43544 1.70986 8.69207 2.32463L9.87389 5.15568C9.97645 5.40137 10.2016 5.57427 10.4654 5.60998L13.6209 6.03706C14.271 6.12505 14.5028 6.94654 13.9945 7.36136L11.5745 9.33612C11.353 9.51686 11.2535 9.80778 11.318 10.0863L12.0906 13.4252C12.2457 14.0954 11.4921 14.6033 10.9291 14.2082L8.43082 12.4547C8.17225 12.2732 7.82767 12.2732 7.5691 12.4547L5.07079 14.2082C4.50775 14.6034 3.75416 14.0954 3.90923 13.4252L4.68184 10.0863C4.74628 9.80778 4.64681 9.51686 4.42533 9.33613L2.00543 7.36136C1.4971 6.94654 1.72885 6.12506 2.37902 6.03706L5.5345 5.60998C5.79834 5.57427 6.02347 5.40137 6.12603 5.15568L7.30784 2.32463Z" fill="#F4B740" stroke="#F4B740" stroke-width="2" stroke-miterlimit="3.3292" stroke-linecap="round" stroke-linejoin="round"/>
</svg>
